<?xml version="1.0" encoding="UTF-8"?>
<svg id="Layer_1" xmlns="http://www.w3.org/2000/svg" version="1.1" viewBox="0 0 24 24">
  <!-- Generator: Adobe Illustrator 30.1.0, SVG Export Plug-In . SVG Version: 2.1.1 Build 136)  -->
  <defs>
    <style>
      .st0 {
        fill: lime;
      }
    </style>
  </defs>
  <path class="st0" d="M10.5,5c0-1.9-1.6-3.5-3.5-3.5s-3.5,1.6-3.5,3.5v2c0,1.9,1.6,3.5,3.5,3.5s3.5-1.6,3.5-3.5v-2ZM9.5,7c0,1.4-1.1,2.5-2.5,2.5s-2.5-1.1-2.5-2.5v-2c0-1.4,1.1-2.5,2.5-2.5s2.5,1.1,2.5,2.5v2ZM17,13.5c-1.9,0-3.5,1.6-3.5,3.5v2c0,1.9,1.6,3.5,3.5,3.5s3.5-1.6,3.5-3.5v-2c0-1.9-1.6-3.5-3.5-3.5ZM19.5,19c0,1.4-1.1,2.5-2.5,2.5s-2.5-1.1-2.5-2.5v-2c0-1.4,1.1-2.5,2.5-2.5s2.5,1.1,2.5,2.5v2ZM20.5,10c0,.3-.2.5-.5.5h-6c-.3,0-.5-.2-.5-.5s.2-.5.5-.5h2.5V2.8l-1.3.6c-.2.1-.5,0-.7-.2-.1-.2,0-.5.2-.7l2-1c.2-.1.5,0,.7.2,0,0,0,.1,0,.2v7.5h2.5c.3,0,.5.2.5.5h0ZM6.5,21.5v-6.7l-1.3.6c-.2.1-.5,0-.7-.2-.1-.2,0-.5.2-.7h0l2-1c.2-.1.5,0,.7.2,0,0,0,.1,0,.2v7.5h2.5c.3,0,.5.2.5.5s-.2.5-.5.5h-6c-.3,0-.5-.2-.5-.5s.2-.5.5-.5h2.5Z"/>
</svg>