<?xml version="1.0" encoding="UTF-8"?>
<svg id="Layer_2" xmlns="http://www.w3.org/2000/svg" version="1.1" viewBox="0 0 157.7 127.2">
  <!-- Generator: Adobe Illustrator 30.1.0, SVG Export Plug-In . SVG Version: 2.1.1 Build 136)  -->
  <defs>
    <style>
      .st0 {
        fill: lime;
      }
    </style>
  </defs>
  <g id="Layer_1-2">
    <g>
      <path class="st0" d="M22.4,20.5h27.5c6.5,0,12.8,1.6,18.5,4.7.2.1.4.2.6.2.5,0,.9-.2,1.2-.7.3-.6.1-1.4-.5-1.8-6-3.3-12.9-5-19.8-5h-27.5c-.7,0-1.3.6-1.3,1.3s.6,1.3,1.3,1.3h0Z"/>
      <path class="st0" d="M22.4,33.4h27.5c6.5,0,12.8,1.6,18.5,4.7.2.1.4.2.6.2.5,0,.9-.2,1.2-.7.3-.6.1-1.4-.5-1.8-6-3.3-12.9-5-19.8-5h-27.5c-.7,0-1.3.6-1.3,1.3s.6,1.3,1.3,1.3h0Z"/>
      <path class="st0" d="M22.4,46.2h27.5c6.5,0,12.8,1.6,18.5,4.7.2.1.4.2.6.2.5,0,.9-.2,1.2-.7.3-.6.1-1.4-.5-1.8-6-3.3-12.9-5-19.8-5h-27.5c-.7,0-1.3.6-1.3,1.3s.6,1.3,1.3,1.3h0Z"/>
      <path class="st0" d="M22.4,59.1h27.5c6.5,0,12.8,1.6,18.5,4.7.2.1.4.2.6.2.5,0,.9-.2,1.2-.7.3-.6.1-1.4-.5-1.8-6-3.3-12.9-5-19.8-5h-27.5c-.7,0-1.3.6-1.3,1.3s.6,1.3,1.3,1.3h0Z"/>
      <path class="st0" d="M22.4,71.9h27.5c6.5,0,12.8,1.6,18.5,4.7.2.1.4.2.6.2.5,0,.9-.2,1.2-.7.3-.6.1-1.4-.5-1.8-6-3.3-12.9-5-19.8-5h-27.5c-.7,0-1.3.6-1.3,1.3s.6,1.3,1.3,1.3h0Z"/>
      <path class="st0" d="M22.4,84.7h27.5c6.5,0,12.8,1.6,18.5,4.7.2.1.4.2.6.2.5,0,.9-.2,1.2-.7.3-.6.1-1.4-.5-1.8-6-3.3-12.9-5-19.8-5h-27.5c-.7,0-1.3.6-1.3,1.3s.6,1.3,1.3,1.3h0Z"/>
      <path class="st0" d="M155.1,11.7h-5.8V2.6c0-1.5-1.2-2.6-2.6-2.6h-38.8c-9.1,0-18.1,3-25.4,8.4l-3.7,2.7-3.7-2.7C67.9,3,58.9,0,49.8,0H11c-1.4,0-2.6,1.2-2.6,2.6v9.1H2.6c-1.5,0-2.6,1.2-2.6,2.6v110.2c0,1.4,1.2,2.6,2.6,2.6h152.5c1.4,0,2.6-1.2,2.6-2.6V14.4c0-1.4-1.2-2.6-2.6-2.6ZM5.3,114.5h71v2.4H5.3v-2.4ZM81.5,114.5h71v2.4h-71v-2.4ZM152.5,17v92.2h-65.5c6.2-4.2,13.5-6.5,20.9-6.5h38.8c1.4,0,2.6-1.2,2.6-2.6V17h3.1,0ZM85.6,12.6c6.4-4.7,14.3-7.3,22.2-7.3h36.2v92.2h-36.2c-9.1,0-18.1,3-25.4,8.4l-1,.8V15.7l4.2-3.1h0ZM13.7,5.3h36.2c8,0,15.8,2.6,22.2,7.3l4.2,3.1v90.9l-1-.8c-7.3-5.4-16.3-8.4-25.4-8.4H13.7V5.3ZM5.3,17h3.1v83.1c0,1.4,1.2,2.6,2.6,2.6h38.8c7.4,0,14.8,2.3,21,6.5H5.3V17ZM5.3,119.5h71v2.4H5.3v-2.4ZM81.5,122v-2.4h71v2.4h-71Z"/>
      <path class="st0" d="M88.7,25.4c.2,0,.4,0,.6-.2,5.7-3.1,12.1-4.7,18.5-4.7h27.5c.7,0,1.3-.6,1.3-1.3s-.6-1.3-1.3-1.3h-27.5c-6.9,0-13.7,1.7-19.8,5-.6.4-.9,1.1-.5,1.8.2.4.7.7,1.2.7h0Z"/>
      <path class="st0" d="M88.7,38.3c.2,0,.4,0,.6-.2,5.7-3.1,12.1-4.7,18.5-4.7h27.5c.7,0,1.3-.6,1.3-1.3s-.6-1.3-1.3-1.3h-27.5c-6.9,0-13.7,1.7-19.8,5-.6.3-.9,1.2-.5,1.8.2.4.7.7,1.2.7h0Z"/>
      <path class="st0" d="M135.4,43.6h-27.5c-6.9,0-13.7,1.7-19.8,5-.6.3-.9,1.2-.5,1.8.2.4.7.7,1.2.7s.4,0,.6-.2c5.7-3.1,12.1-4.7,18.5-4.7h27.5c.7,0,1.3-.6,1.3-1.3s-.6-1.3-1.3-1.3h0Z"/>
      <path class="st0" d="M88.7,63.9c.2,0,.4,0,.6-.2,5.7-3.1,12.1-4.7,18.5-4.7h27.5c.7,0,1.3-.6,1.3-1.3s-.6-1.3-1.3-1.3h-27.5c-6.9,0-13.7,1.7-19.8,5-.6.3-.9,1.2-.5,1.8.2.4.7.7,1.2.7h0Z"/>
      <path class="st0" d="M88.7,76.8c.2,0,.4,0,.6-.2,5.7-3.1,12.1-4.7,18.5-4.7h27.5c.7,0,1.3-.6,1.3-1.3s-.6-1.3-1.3-1.3h-27.5c-6.9,0-13.7,1.7-19.8,5-.6.3-.9,1.2-.5,1.8.2.4.7.7,1.2.7h0Z"/>
      <path class="st0" d="M135.4,82.1h-27.5c-6.9,0-13.7,1.7-19.8,5-.6.3-.9,1.2-.5,1.8.2.4.7.7,1.2.7s.4,0,.6-.2c5.7-3.1,12.1-4.7,18.5-4.7h27.5c.7,0,1.3-.6,1.3-1.3s-.6-1.3-1.3-1.3h0Z"/>
    </g>
  </g>
</svg>