<?xml version="1.0" encoding="UTF-8"?>
<svg id="Layer_1" xmlns="http://www.w3.org/2000/svg" version="1.1" viewBox="0 0 24 24">
  <!-- Generator: Adobe Illustrator 30.1.0, SVG Export Plug-In . SVG Version: 2.1.1 Build 136)  -->
  <defs>
    <style>
      .st0 {
        fill: lime;
      }
    </style>
  </defs>
  <path class="st0" d="M12.5,17v2c0,1.4,1.1,2.5,2.5,2.5h6c.3,0,.5-.2.5-.5h0v-4c0-1.4-1.1-2.5-2.5-2.5h-4c-1.4,0-2.5,1.1-2.5,2.5ZM13.5,17c0-.8.7-1.5,1.5-1.5h4c.8,0,1.5.7,1.5,1.5v3.5h-5.5c-.8,0-1.5-.7-1.5-1.5v-2ZM21.5,3c0-.3-.2-.5-.5-.5h-4c-1.4,0-2.5,1.1-2.5,2.5v2c0,1.4,1.1,2.5,2.5,2.5h2c1.4,0,2.5-1.1,2.5-2.5V3ZM20.5,7c0,.8-.7,1.5-1.5,1.5h-2c-.8,0-1.5-.7-1.5-1.5v-2c0-.8.7-1.5,1.5-1.5h3.5v3.5ZM9,2.5h-4c-1.4,0-2.5,1.1-2.5,2.5v7c0,.3.2.5.5.5s.5-.2.5-.5v-2.5h5.5c1.4,0,2.5-1.1,2.5-2.5v-2c0-1.4-1.1-2.5-2.5-2.5ZM10.5,7c0,.8-.7,1.5-1.5,1.5H3.5v-3.5c0-.8.7-1.5,1.5-1.5h4c.8,0,1.5.7,1.5,1.5v2ZM19,19h-4v-2h4v2ZM17,5h2v2h-2v-2ZM5,5h4v2h-4v-2ZM2.5,19h4.5v2H2.5v-2ZM9,19h2v2h-2v-2ZM7,15h2v2h-2v-2ZM9,11v2h-2v-2h2ZM9,13h2v2h-2v-2ZM15,11h2v2h-2v-2ZM11,11h2v2h-2v-2ZM19,11h2v2h-2v-2ZM2.5,15h2.5v2h-2.5v-2Z"/>
</svg>