<?xml version="1.0" encoding="UTF-8"?>
<svg id="Layer_1" xmlns="http://www.w3.org/2000/svg" version="1.1" viewBox="0 0 24 24">
  <!-- Generator: Adobe Illustrator 30.1.0, SVG Export Plug-In . SVG Version: 2.1.1 Build 136)  -->
  <defs>
    <style>
      .st0 {
        fill: lime;
      }
    </style>
  </defs>
  <path class="st0" d="M22.2,12.5l-4.7-1.9v-6.7c0-.2-.1-.4-.3-.5l-5-2c-.1,0-.3,0-.4,0l-5,2c-.2,0-.3.3-.3.5v6.7l-4.7,1.9c-.2,0-.3.3-.3.5v7c0,.2.1.4.3.5l5,2h0s0,0,0,0c.1,0,.3,0,.4,0h0s0,0,0,0l4.8-1.9,4.8,1.9h0s0,0,0,0c.1,0,.3,0,.4,0h0s0,0,0,0l5-2c.2,0,.3-.3.3-.5v-7c0-.2-.1-.4-.3-.5ZM17,14.5l-3.7-1.5,3.7-1.5,3.7,1.5-3.7,1.5ZM7,11.5l3.7,1.5-3.7,1.5-3.7-1.5,3.7-1.5ZM11.5,6.3v5.9l-4-1.6v-5.9l4,1.6ZM16.5,10.7l-4,1.6v-5.9l4-1.6v5.9ZM7.5,15.3l4-1.6v5.9l-4,1.6v-5.9ZM12,2.5l3.7,1.5-3.7,1.5-3.7-1.5,3.7-1.5ZM2.5,13.7l4,1.6v5.9l-4-1.6v-5.9ZM12.5,13.7l4,1.6v5.9l-4-1.6v-5.9ZM17.5,21.3v-5.9l4-1.6v5.9l-4,1.6Z"/>
</svg>