<?xml version="1.0" encoding="UTF-8"?>
<svg id="Layer_1" xmlns="http://www.w3.org/2000/svg" version="1.1" viewBox="0 0 24 24">
  <!-- Generator: Adobe Illustrator 30.1.0, SVG Export Plug-In . SVG Version: 2.1.1 Build 136)  -->
  <defs>
    <style>
      .st0 {
        fill: lime;
      }
    </style>
  </defs>
  <path class="st0" d="M17.5,15v-6c0-1.4-1.1-2.5-2.5-2.5h-6c-1.4,0-2.5,1.1-2.5,2.5v6c0,1.4,1.1,2.5,2.5,2.5h6c1.4,0,2.5-1.1,2.5-2.5ZM7.5,15v-6c0-.8.7-1.5,1.5-1.5h6c.8,0,1.5.7,1.5,1.5v6c0,.8-.7,1.5-1.5,1.5h-6c-.8,0-1.5-.7-1.5-1.5ZM4,2l-2,2v-2h2ZM20,2h2v2l-2-2ZM4,22h-2v-2l2,2ZM20,22l2-2v2h-2ZM20,6h2v2h-2v-2ZM20,11h2v2h-2v-2ZM20,16h2v2h-2v-2ZM4,8h-2v-2h2v2ZM4,13h-2v-2h2v2ZM2,16h2v2h-2v-2ZM18,22h-2v-2h2v2ZM11,22v-2h2v2h-2ZM8,22h-2v-2h2v2ZM18,4h-2v-2h2v2ZM13,2v2h-2v-2h2ZM6,4v-2h2v2h-2Z"/>
</svg>